<svg width="1148" height="246" viewBox="0 0 1148 246" fill="none" xmlns="http://www.w3.org/2000/svg">
<path d="M245.854 0H0V163.902H245.854V0Z" fill="white"/>
<path d="M81.9512 245.854V163.902L0 163.902L3.27506e-05 245.854H81.9512Z" fill="white"/>
<path d="M737.561 0H655.609V245.854L819.512 245.854V163.902H737.561L737.561 0Z" fill="white"/>
<path d="M327.805 0H409.756V81.9512H327.805V0Z" fill="white"/>
<path d="M327.805 163.902H409.756V245.854H327.805V163.902Z" fill="white"/>
<path d="M491.707 81.9512L409.756 81.9512V163.902H491.707V245.854H573.658V163.902H491.707V81.9512Z" fill="white"/>
<path d="M491.707 81.9512V2.97732e-05H573.658V81.9512H491.707Z" fill="white"/>
<path d="M983.415 0H1147.32V163.902H1065.37V245.854L901.464 245.854V81.9512H983.415V0Z" fill="white"/>
</svg>
